<svg xmlns="http://www.w3.org/2000/svg" xmlns:xlink="http://www.w3.org/1999/xlink" viewBox="0 0 1367 384">
  <defs>
    <style>
      .cls-1 {
        fill: #075d6b;
      }

      .cls-2 {
        fill: #fff;
      }
    </style>
  </defs>
  <title>footer_1</title>
  <g id="Layer_2" data-name="Layer 2">
    <g id="Layer_1-2" data-name="Layer 1">
      <g>
        <path class="cls-1" d="M1367,108.08S1335,190,1296,190s-33-116.41-80-99.16-31,99.16-70,92.69S1137-4,1071,.3s4,200.47-95,213.41-22-97-78-90.54-37,77.6-79,47.43S817,19.7,757,37s-18,86.22-73,107.78-17-86.22-77-86.22-45,116.4-79,148.73-36-77.6-89-153S370,170.6,343,174.91,319,52,285,54.19,246,170.6,222,187.84s-26-90.53-78-43.11C123.43,163.49,94.91,5.27,70,.3,31.92-7.29,0,129.64,0,129.64L1,384H1367Z"/>
        <g>
          <path class="cls-2" d="M561.39,348.35a10.63,10.63,0,0,1-4.61.85A7.78,7.78,0,0,1,551,347a8,8,0,0,1-2.12-5.81,8.5,8.5,0,0,1,2.39-6.26,8.35,8.35,0,0,1,6.19-2.41,11.54,11.54,0,0,1,4,.6v3.49a7.1,7.1,0,0,0-3.69-1,4.89,4.89,0,0,0-3.66,1.42,5.29,5.29,0,0,0-1.39,3.87,5.23,5.23,0,0,0,1.31,3.72,4.68,4.68,0,0,0,3.54,1.39,7.55,7.55,0,0,0,3.89-1Z"/>
          <path class="cls-2" d="M569.33,349.2a6.18,6.18,0,0,1-4.52-1.61,6.66,6.66,0,0,1,.06-8.84,6.46,6.46,0,0,1,4.61-1.61,6.15,6.15,0,0,1,4.5,1.61A5.74,5.74,0,0,1,575.6,343a6.12,6.12,0,0,1-1.67,4.53A6.26,6.26,0,0,1,569.33,349.2Zm.09-9.34a2.37,2.37,0,0,0-2,.86,3.84,3.84,0,0,0-.69,2.45c0,2.21.89,3.31,2.67,3.31s2.55-1.13,2.55-3.4S571.13,339.86,569.42,339.86Z"/>
          <path class="cls-2" d="M581.5,347.58h0v6.63h-3.55V337.42h3.55v1.73h0a4.52,4.52,0,0,1,7.15-.48,6.53,6.53,0,0,1,1.22,4.17,7.12,7.12,0,0,1-1.42,4.62,4.64,4.64,0,0,1-3.78,1.74A3.58,3.58,0,0,1,581.5,347.58Zm-.1-4.71v.92a2.92,2.92,0,0,0,.63,1.94,2.05,2.05,0,0,0,1.65.75,2.17,2.17,0,0,0,1.88-.94,4.47,4.47,0,0,0,.67-2.65c0-2-.79-3-2.36-3a2.2,2.2,0,0,0-1.78.82A3.3,3.3,0,0,0,581.4,342.87Z"/>
          <path class="cls-2" d="M603.12,337.42l-4.67,12.42q-1.69,4.49-5.08,4.48a6.61,6.61,0,0,1-2.12-.29V351.2a2.94,2.94,0,0,0,1.54.41,1.93,1.93,0,0,0,1.91-1.29l.6-1.42-4.67-11.48h3.93l2.15,7A8.94,8.94,0,0,1,597,346h.05a9.63,9.63,0,0,1,.37-1.51l2.16-7Z"/>
          <path class="cls-2" d="M612.05,340.62a3.13,3.13,0,0,0-1.5-.35,2.12,2.12,0,0,0-1.8.85,3.65,3.65,0,0,0-.66,2.31v5.49h-3.54v-11.5h3.54v2.13h0a3.07,3.07,0,0,1,3-2.33,2.3,2.3,0,0,1,.88.13Z"/>
          <path class="cls-2" d="M615.5,335.6a2.13,2.13,0,0,1-1.48-.53,1.74,1.74,0,0,1-.57-1.31,1.65,1.65,0,0,1,.57-1.3,2.16,2.16,0,0,1,1.48-.51,2.12,2.12,0,0,1,1.47.51,1.65,1.65,0,0,1,.57,1.3,1.69,1.69,0,0,1-.57,1.32A2.08,2.08,0,0,1,615.5,335.6Zm1.75,13.32H613.7v-11.5h3.55Z"/>
          <path class="cls-2" d="M631.51,347.6a6.52,6.52,0,0,1-1.85,5,7.49,7.49,0,0,1-5.37,1.76,8.58,8.58,0,0,1-3.69-.66v-3a7.07,7.07,0,0,0,3.59,1,3.81,3.81,0,0,0,2.78-.95,3.39,3.39,0,0,0,1-2.57v-.91h0a4,4,0,0,1-3.59,1.93,4.32,4.32,0,0,1-3.49-1.55,6.28,6.28,0,0,1-1.29-4.15,7,7,0,0,1,1.44-4.64,4.68,4.68,0,0,1,3.78-1.72,3.52,3.52,0,0,1,3.15,1.61h0v-1.33h3.55Zm-3.5-4.21v-.91a2.78,2.78,0,0,0-.65-1.85,2.07,2.07,0,0,0-1.68-.77,2.16,2.16,0,0,0-1.85.92,4.31,4.31,0,0,0-.68,2.59,3.72,3.72,0,0,0,.64,2.28,2.12,2.12,0,0,0,1.76.83,2.17,2.17,0,0,0,1.78-.85A3.48,3.48,0,0,0,628,343.39Z"/>
          <path class="cls-2" d="M645.51,348.92H642v-6.54c0-1.68-.62-2.52-1.85-2.52a1.88,1.88,0,0,0-1.52.7,2.75,2.75,0,0,0-.59,1.8v6.56h-3.55v-17H638v7.24h.05a4,4,0,0,1,3.54-2q3.9,0,3.9,4.71Z"/>
          <path class="cls-2" d="M655.27,348.78a5.17,5.17,0,0,1-2.37.42q-3.75,0-3.75-3.9V340h-1.86v-2.62h1.86v-2.48l3.54-1v3.49h2.58V340h-2.58v4.64c0,1.2.48,1.8,1.43,1.8a2.44,2.44,0,0,0,1.15-.32Z"/>
          <path class="cls-2" d="M656.52,348.62v-2.88a8,8,0,0,0,1.75.79,5.87,5.87,0,0,0,1.64.26,3.56,3.56,0,0,0,1.49-.26.85.85,0,0,0,.54-.79.74.74,0,0,0-.24-.56,2.32,2.32,0,0,0-.64-.39,6,6,0,0,0-.85-.31c-.3-.09-.6-.19-.88-.3a8.06,8.06,0,0,1-1.21-.56,3.21,3.21,0,0,1-.88-.69,2.66,2.66,0,0,1-.53-.91,3.44,3.44,0,0,1-.19-1.22,3.15,3.15,0,0,1,.42-1.66,3.39,3.39,0,0,1,1.12-1.14,4.91,4.91,0,0,1,1.61-.65,8.27,8.27,0,0,1,1.88-.21,11.34,11.34,0,0,1,3.1.46v2.74a5.67,5.67,0,0,0-1.44-.59,6.21,6.21,0,0,0-1.51-.2,3.52,3.52,0,0,0-.66.06,2.84,2.84,0,0,0-.54.18.88.88,0,0,0-.37.31.68.68,0,0,0-.14.42.8.8,0,0,0,.2.54,1.82,1.82,0,0,0,.53.39c.22.1.46.2.72.29l.8.26a13,13,0,0,1,1.28.54,3.74,3.74,0,0,1,1,.69,2.69,2.69,0,0,1,.63.92,3.37,3.37,0,0,1,.22,1.25,3.25,3.25,0,0,1-.45,1.75,3.5,3.5,0,0,1-1.18,1.18A5.42,5.42,0,0,1,662,349a9.33,9.33,0,0,1-2,.21A10.52,10.52,0,0,1,656.52,348.62Z"/>
          <path class="cls-2" d="M687.47,348.92h-4.58l-4.7-7a6.24,6.24,0,0,1-.42-.88h-.06v7.88h-3.63V332.81h3.63v7.62h.06q.13-.31.45-.9l4.44-6.72H687l-5.62,7.69Z"/>
          <path class="cls-2" d="M690.46,335.6a2.09,2.09,0,0,1-1.47-.53,1.75,1.75,0,0,1-.58-1.31,1.66,1.66,0,0,1,.58-1.3,2.12,2.12,0,0,1,1.47-.51,2.15,2.15,0,0,1,1.48.51,1.67,1.67,0,0,1,.56,1.3,1.71,1.71,0,0,1-.56,1.32A2.11,2.11,0,0,1,690.46,335.6Zm1.75,13.32h-3.55v-11.5h3.55Z"/>
          <path class="cls-2" d="M706.3,348.92h-3.53v-6.39c0-1.78-.64-2.67-1.91-2.67a1.9,1.9,0,0,0-1.52.7,2.75,2.75,0,0,0-.59,1.8v6.56H695.2v-11.5h3.55v1.82h0a4.08,4.08,0,0,1,3.7-2.1q3.81,0,3.81,4.74Z"/>
          <path class="cls-2" d="M720.39,347.6a6.52,6.52,0,0,1-1.85,5,7.49,7.49,0,0,1-5.37,1.76,8.58,8.58,0,0,1-3.69-.66v-3a7.07,7.07,0,0,0,3.59,1,3.83,3.83,0,0,0,2.78-.95,3.39,3.39,0,0,0,1-2.57v-.91h-.05a3.94,3.94,0,0,1-3.58,1.93,4.31,4.31,0,0,1-3.49-1.55,6.28,6.28,0,0,1-1.29-4.15,7,7,0,0,1,1.44-4.64,4.65,4.65,0,0,1,3.78-1.72,3.49,3.49,0,0,1,3.14,1.61h.05v-1.33h3.55Zm-3.51-4.21v-.91a2.78,2.78,0,0,0-.64-1.85,2.07,2.07,0,0,0-1.68-.77,2.15,2.15,0,0,0-1.85.92,4.31,4.31,0,0,0-.68,2.59,3.72,3.72,0,0,0,.64,2.28,2.1,2.1,0,0,0,1.75.83,2.18,2.18,0,0,0,1.79-.85A3.48,3.48,0,0,0,716.88,343.39Z"/>
          <path class="cls-2" d="M741.59,348.35a10.58,10.58,0,0,1-4.6.85,7.77,7.77,0,0,1-5.83-2.18,7.94,7.94,0,0,1-2.12-5.81,8.5,8.5,0,0,1,2.38-6.26,8.37,8.37,0,0,1,6.2-2.41,11.48,11.48,0,0,1,4,.6v3.49a7.06,7.06,0,0,0-3.68-1,4.89,4.89,0,0,0-3.66,1.42,5.3,5.3,0,0,0-1.4,3.87,5.19,5.19,0,0,0,1.32,3.72,4.65,4.65,0,0,0,3.54,1.39,7.52,7.52,0,0,0,3.88-1Z"/>
          <path class="cls-2" d="M753.62,348.92h-3.36v-1.65h0a3.75,3.75,0,0,1-3.43,1.93,3.59,3.59,0,0,1-2.63-.95,3.4,3.4,0,0,1-1-2.53q0-3.35,4-3.87l3.12-.41q0-1.89-2-1.89a7,7,0,0,0-3.91,1.23V338.1a9.41,9.41,0,0,1,2-.67,11,11,0,0,1,2.34-.29c3.28,0,4.92,1.63,4.92,4.91Zm-3.34-4.67v-.78l-2.08.27c-1.16.15-1.73.67-1.73,1.56a1.3,1.3,0,0,0,.42,1,1.65,1.65,0,0,0,1.14.38,2.12,2.12,0,0,0,1.63-.69A2.52,2.52,0,0,0,750.28,344.25Z"/>
          <path class="cls-2" d="M767.53,348.92H764v-6.39c0-1.78-.64-2.67-1.91-2.67a1.9,1.9,0,0,0-1.52.7,2.69,2.69,0,0,0-.59,1.8v6.56h-3.55v-11.5H760v1.82h0a4.08,4.08,0,0,1,3.7-2.1q3.81,0,3.81,4.74Z"/>
          <path class="cls-2" d="M781.59,348.92H778v-1.59h0a4,4,0,0,1-3.56,1.87,4.37,4.37,0,0,1-3.47-1.52,6.28,6.28,0,0,1-1.31-4.25,6.83,6.83,0,0,1,1.45-4.57,4.7,4.7,0,0,1,3.79-1.72,3.23,3.23,0,0,1,3.1,1.59h0v-6.84h3.55Zm-3.48-5.59v-.87a2.67,2.67,0,0,0-.65-1.86,2.12,2.12,0,0,0-1.69-.74,2.17,2.17,0,0,0-1.85.92,4.34,4.34,0,0,0-.66,2.55,3.67,3.67,0,0,0,.64,2.33,2.27,2.27,0,0,0,3.53,0A3.57,3.57,0,0,0,778.11,343.33Z"/>
          <path class="cls-2" d="M795.53,337.42l-4.67,12.42c-1.12,3-2.82,4.48-5.08,4.48a6.61,6.61,0,0,1-2.12-.29V351.2a3,3,0,0,0,1.54.41,1.93,1.93,0,0,0,1.91-1.29l.6-1.42L783,337.42H787l2.15,7a8.94,8.94,0,0,1,.31,1.53h.05a9.63,9.63,0,0,1,.37-1.51l2.17-7Z"/>
          <path class="cls-2" d="M806.63,346h6.83v2.94H802.74v-1.21a5.56,5.56,0,0,1,.42-2.22,7.23,7.23,0,0,1,1-1.77,9,9,0,0,1,1.38-1.38c.49-.4,1-.76,1.42-1.08s.88-.66,1.24-1a7.68,7.68,0,0,0,.9-.91,3.51,3.51,0,0,0,.54-.92,2.73,2.73,0,0,0,.18-1,2,2,0,0,0-.58-1.56,2.62,2.62,0,0,0-1.79-.52,5.94,5.94,0,0,0-4,1.65V333.9a8.57,8.57,0,0,1,4.73-1.36,6.83,6.83,0,0,1,2.2.33,4.55,4.55,0,0,1,1.65.91,4,4,0,0,1,1,1.44,4.84,4.84,0,0,1,.36,1.9,5.25,5.25,0,0,1-.35,2,5.91,5.91,0,0,1-.91,1.58,7.94,7.94,0,0,1-1.3,1.29c-.5.39-1,.77-1.54,1.14l-1,.76a10,10,0,0,0-.88.74,3.8,3.8,0,0,0-.61.71A1.26,1.26,0,0,0,806.63,346Z"/>
          <path class="cls-2" d="M821.56,349.2q-5.74,0-5.75-8.07a11,11,0,0,1,1.56-6.39,5.2,5.2,0,0,1,4.51-2.2q5.61,0,5.61,8.21A10.83,10.83,0,0,1,826,347,5.06,5.06,0,0,1,821.56,349.2Zm.16-13.95q-2.29,0-2.3,5.79,0,5.44,2.25,5.44t2.21-5.61Q823.88,335.25,821.72,335.25Z"/>
          <path class="cls-2" d="M837.61,332.46v16.46h-3.54V336.45a3.38,3.38,0,0,1-.69.49c-.26.15-.55.29-.84.42a7.39,7.39,0,0,1-.94.31,6.65,6.65,0,0,1-1,.19v-3a14.52,14.52,0,0,0,2.6-1,15,15,0,0,0,2.22-1.38Z"/>
          <path class="cls-2" d="M853.7,340.09a14.12,14.12,0,0,1-.47,3.84,8.27,8.27,0,0,1-1.37,2.86,6.27,6.27,0,0,1-2.21,1.79,6.83,6.83,0,0,1-2.95.62,8.44,8.44,0,0,1-3.41-.63v-2.92a5.43,5.43,0,0,0,3.06.83,3.51,3.51,0,0,0,2.86-1.24,5.61,5.61,0,0,0,1-3.61l-.07,0a3.65,3.65,0,0,1-3.25,1.58,4.39,4.39,0,0,1-3.27-1.4,4.48,4.48,0,0,1-.95-1.56,5.64,5.64,0,0,1-.35-2,6.18,6.18,0,0,1,.42-2.32,5.32,5.32,0,0,1,1.16-1.79,5.17,5.17,0,0,1,1.79-1.16,6.18,6.18,0,0,1,2.32-.42,5.14,5.14,0,0,1,2.35.52,4.93,4.93,0,0,1,1.78,1.47,7.05,7.05,0,0,1,1.13,2.37A12,12,0,0,1,853.7,340.09Zm-3.58-1.88A4,4,0,0,0,850,337a3.25,3.25,0,0,0-.43-.94,2.15,2.15,0,0,0-.69-.62,1.79,1.79,0,0,0-.89-.23,1.86,1.86,0,0,0-.84.2,2.11,2.11,0,0,0-.67.56,2.73,2.73,0,0,0-.44.85,3.62,3.62,0,0,0-.16,1.06A3.78,3.78,0,0,0,846,339a2.52,2.52,0,0,0,.44.83,2,2,0,0,0,.69.51,2.37,2.37,0,0,0,.9.17,2,2,0,0,0,.86-.18,2.13,2.13,0,0,0,.65-.5,2.18,2.18,0,0,0,.43-.74A2.82,2.82,0,0,0,850.12,338.21Z"/>
        </g>
        <image width="256" height="256" transform="translate(129 283) scale(0.26)" xlink:href="../facebook.png"/>
        <image width="256" height="256" transform="translate(224 284) scale(0.29)" xlink:href="../insta.png"/>
        <image width="256" height="256" transform="translate(332 284) scale(0.3 0.28)" xlink:href="../twitter.png"/>
      </g>
    </g>
  </g>
</svg>
